<svg width="100" height="21" viewBox="0 0 100 21" fill="none" xmlns="http://www.w3.org/2000/svg">
<path d="M9.40238 4.24154C9.59525 4.24154 9.78244 4.25002 9.96964 4.26424C10.5766 4.31541 11.1609 4.44904 11.7083 4.64803C13.0896 5.15403 14.261 6.09499 15.0523 7.30881C14.7233 4.78451 13.1917 2.63827 11.0503 1.47561C9.9498 0.875807 8.68763 0.534668 7.34605 0.534668C6.21437 0.534668 4.45582 0.773418 3.4858 1.20835C2.03361 1.73425 1.08347 2.5899 0 3.55926L4.48987 6.37071C5.71799 5.05739 7.46234 4.24154 9.40238 4.24154Z" fill="black"/>
<path d="M14.1298 10.5795H14.127C13.9909 10.5909 13.8547 10.5995 13.7214 10.6051H13.6874C13.123 10.6194 12.5528 10.5625 11.9998 10.4346C11.2822 10.2697 10.5844 9.98826 9.9406 9.58175C9.51516 9.31738 9.11525 8.99904 8.74653 8.62949C8.64158 8.52716 8.54237 8.4191 8.44877 8.31108C7.75955 7.5265 7.28587 6.62536 7.0221 5.6759C6.25629 6.03977 5.56987 6.54575 4.99693 7.15409C4.33607 7.85623 3.82554 8.70057 3.51355 9.63582C3.45115 9.82628 3.3944 10.0224 3.34618 10.2242L3.21004 10.9917L2.66833 14.0675L2.54071 14.7839L3.01151 14.3802L3.80286 13.698L3.67524 11.981C3.64687 11.8076 3.63265 11.6314 3.63265 11.4494V11.4323L8.22185 11.5347C7.4759 11.8758 6.15983 13.0243 5.64646 13.5644L5.64078 13.5729C5.52449 13.6951 5.41389 13.8202 5.30611 13.951L4.91467 15.5259L4.86931 15.7078H4.87215L4.76156 16.1512L4.74169 16.2337L3.63265 20.7024L7.81621 18.4595L7.85596 18.2519L8.01481 17.4162C8.03182 17.3366 8.04882 17.2684 8.06584 17.2087C8.11122 17.0381 8.13394 16.9557 8.1623 16.879C8.20768 16.7368 8.25874 16.5975 8.30695 16.4724C9.26279 13.9794 10.4625 13.4108 10.3831 13.4108C10.4455 13.3597 10.5135 13.3113 10.5816 13.2659C11.1631 12.8594 11.9232 12.5666 12.7458 12.4529C12.8706 12.4358 13.0124 12.4216 13.1598 12.4187L13.1996 12.4159L13.9569 11.5716L14.9581 10.4516L14.9041 10.463C14.646 10.517 14.3879 10.5568 14.1298 10.5795Z" fill="black"/>
<path d="M23.2183 14.0833C23.0623 14.5012 22.8127 14.8224 22.444 15.0413C22.0838 15.2574 21.6696 15.3625 21.2045 15.3625C20.7252 15.3625 20.3508 15.2659 20.0785 15.0584C19.8062 14.8537 19.6644 14.5752 19.6644 14.2227C19.6644 13.4892 20.2231 13.1197 21.3435 13.1197H23.2183V14.0833ZM24.7698 8.53729C23.9898 7.84083 22.8695 7.48828 21.4116 7.48828C20.66 7.48828 19.9197 7.58779 19.1993 7.78678C18.4845 7.98861 17.8634 8.27003 17.3528 8.63105L18.3313 10.5413C18.6717 10.2741 19.0858 10.0609 19.5708 9.89887C20.0529 9.74537 20.5437 9.66582 21.0457 9.66582C21.7718 9.66582 22.3107 9.825 22.6681 10.1462C23.0368 10.4674 23.2183 10.928 23.2183 11.5221H21.0457C19.6729 11.5221 18.6519 11.7779 17.991 12.2754C17.3301 12.7785 17.004 13.475 17.004 14.3506C17.004 14.8964 17.1429 15.391 17.4266 15.8174C17.7045 16.2523 18.1101 16.5934 18.6377 16.8408C19.1709 17.0795 19.7977 17.2075 20.5266 17.2075C21.9249 17.2075 22.878 16.7668 23.3885 15.8913V17.0681H25.944V11.6812C25.944 10.2798 25.5554 9.2309 24.7698 8.53729Z" fill="black"/>
<path d="M47.2782 11.4464C47.3633 10.4827 47.7178 9.71519 48.356 9.11538C48.9828 8.52126 49.7599 8.22558 50.6902 8.22558C51.6347 8.22558 52.4176 8.52126 53.0557 9.11538C53.6854 9.71519 54.0428 10.4827 54.125 11.4464H47.2782ZM55.3787 12.0121C55.3787 11.0598 55.1745 10.2098 54.7689 9.47072C54.3633 8.72593 53.8102 8.14315 53.0983 7.73096C52.3892 7.3074 51.5893 7.09705 50.6902 7.09705C49.7968 7.09705 48.9941 7.3074 48.2794 7.73096C47.5646 8.14315 46.9974 8.72594 46.5918 9.47641C46.1805 10.2269 45.9763 11.074 45.9763 12.0121C45.9763 12.9587 46.1862 13.8086 46.6202 14.5591C47.0456 15.2982 47.6412 15.8895 48.4042 16.3102C49.1729 16.7395 50.0493 16.9498 51.042 16.9498C51.8106 16.9498 52.5169 16.8162 53.1607 16.5433C53.8046 16.2761 54.3434 15.8838 54.7689 15.3636L54.0371 14.5136C53.6712 14.9372 53.2316 15.2527 52.7324 15.4687C52.2304 15.6819 51.6773 15.7928 51.076 15.7928C50.0152 15.7928 49.1331 15.4773 48.4325 14.8604C47.7405 14.2407 47.3576 13.4305 47.2782 12.4185H55.356L55.3787 12.0121Z" fill="black"/>
<path d="M62.7689 12.7142C62.4399 12.356 62.0427 12.1116 61.5804 11.9638C61.1096 11.8159 60.4969 11.6681 59.7283 11.5231C59.0958 11.4123 58.608 11.2985 58.2591 11.199C57.9017 11.0938 57.6011 10.9347 57.3629 10.7101C57.1246 10.4827 57.0055 10.1899 57.0055 9.82605C57.0055 9.34848 57.2154 8.9647 57.6437 8.66906C58.0634 8.37626 58.6902 8.22558 59.5241 8.22558C60.6218 8.22558 61.5748 8.49853 62.3689 9.0557L62.939 8.00385C62.5306 7.73663 62.0201 7.52065 61.3989 7.35293C60.7693 7.18237 60.1453 7.09705 59.5241 7.09705C58.3187 7.09705 57.3827 7.35857 56.7105 7.87594C56.0383 8.38762 55.7064 9.05565 55.7064 9.86013C55.7064 10.5111 55.8738 11.0228 56.2085 11.3895C56.5432 11.7619 56.9488 12.0178 57.4253 12.1741C57.9074 12.3276 58.5371 12.4754 59.3227 12.6232C59.9098 12.7227 60.3778 12.8194 60.7324 12.9246C61.0926 13.0297 61.3848 13.1833 61.6145 13.3851C61.8471 13.5898 61.9634 13.8712 61.9634 14.2208C61.9634 14.7268 61.7535 15.1191 61.3309 15.392C60.9083 15.6649 60.2587 15.8042 59.3766 15.8042C58.7129 15.8042 58.0747 15.7076 57.4678 15.5029C56.8523 15.2982 56.3503 15.0424 55.9447 14.7183L55.3547 15.7502C55.7603 16.0941 56.3219 16.3812 57.0338 16.6058C57.7486 16.8361 58.5031 16.9498 59.2859 16.9498C60.531 16.9498 61.5095 16.694 62.2129 16.205C62.9163 15.7076 63.2681 15.0367 63.2681 14.1867C63.2681 13.5641 63.1064 13.0724 62.7689 12.7142Z" fill="black"/>
<path d="M72.5118 13.9849C72.1941 14.5648 71.7687 15.0082 71.2156 15.3209C70.6625 15.6308 70.0555 15.7929 69.3776 15.7929C68.6884 15.7929 68.0729 15.6308 67.5369 15.3209C66.9923 15.0082 66.5584 14.5648 66.2493 13.9849C65.9344 13.4078 65.7812 12.7512 65.7812 12.0121C65.7812 11.2786 65.9344 10.6277 66.2493 10.0563C66.5584 9.4821 66.9923 9.04143 67.5369 8.72021C68.0729 8.40183 68.6884 8.24266 69.3776 8.24266C70.0555 8.24266 70.6625 8.40183 71.2156 8.72021C71.7687 9.04143 72.1941 9.4821 72.5118 10.0563C72.8238 10.6277 72.977 11.2786 72.977 12.0121C72.977 12.7512 72.8238 13.4078 72.5118 13.9849ZM73.6548 9.45364C73.2436 8.70886 72.6621 8.12899 71.9303 7.71396C71.1957 7.30745 70.3761 7.09705 69.4713 7.09705C68.6629 7.09705 67.934 7.27331 67.2902 7.61728C66.6548 7.96125 66.1386 8.45301 65.7444 9.08977V7.17665H64.4935V20.4264H65.8011V15.0367C66.1982 15.6592 66.7201 16.1368 67.3469 16.458C67.985 16.7877 68.6884 16.9498 69.4713 16.9498C70.3902 16.9498 71.2156 16.7451 71.9417 16.3329C72.6706 15.9207 73.2436 15.3437 73.6548 14.5932C74.0774 13.8428 74.2816 12.9871 74.2816 12.0121C74.2816 11.0598 74.0774 10.2041 73.6548 9.45364Z" fill="black"/>
<path d="M76.2537 11.4464C76.3444 10.4827 76.699 9.71519 77.3315 9.11538C77.9583 8.52126 78.744 8.22558 79.6714 8.22558C80.6103 8.22558 81.4015 8.52126 82.0312 9.11538C82.6609 9.71519 83.0182 10.4827 83.1005 11.4464H76.2537ZM84.3542 12.0121C84.3542 11.0598 84.1499 10.2098 83.7444 9.47072C83.3444 8.72593 82.7857 8.14315 82.0738 7.73096C81.3647 7.3074 80.5592 7.09705 79.6714 7.09705C78.778 7.09705 77.9725 7.3074 77.2521 7.73096C76.5373 8.14315 75.9729 8.72594 75.5673 9.47641C75.156 10.2269 74.9518 11.074 74.9518 12.0121C74.9518 12.9587 75.1673 13.8086 75.5956 14.5591C76.0211 15.2982 76.6167 15.8895 77.3854 16.3102C78.1483 16.7395 79.0304 16.9498 80.0146 16.9498C80.7918 16.9498 81.498 16.8162 82.1419 16.5433C82.7857 16.2761 83.3161 15.8838 83.7444 15.3636L83.0098 14.5136C82.6467 14.9372 82.2128 15.2527 81.7079 15.4687C81.203 15.6819 80.6528 15.7928 80.06 15.7928C78.9879 15.7928 78.1058 15.4773 77.4138 14.8604C76.716 14.2407 76.3303 13.4305 76.2537 12.4185H84.3315L84.3542 12.0121Z" fill="black"/>
<path d="M92.6632 14.3658L93.6361 15.031C93.2532 15.6564 92.7341 16.1339 92.0761 16.4551C91.4124 16.7849 90.6693 16.947 89.8524 16.947C88.8937 16.947 88.04 16.7366 87.2912 16.3216C86.5367 15.9008 85.9496 15.3181 85.5157 14.5619C85.0874 13.8058 84.8719 12.9558 84.8719 12.0092C84.8719 11.0711 85.0874 10.2212 85.5157 9.47356C85.9496 8.72309 86.5367 8.1403 87.2912 7.72527C88.04 7.30739 88.8937 7.09705 89.8524 7.09705C90.6834 7.09705 91.4266 7.26476 92.0846 7.58598C92.7426 7.91005 93.2532 8.38478 93.6361 9.01017L92.6632 9.67538C92.3427 9.19781 91.9371 8.84246 91.4464 8.59515C90.9586 8.35636 90.4253 8.23981 89.8524 8.23981C89.1518 8.23981 88.5222 8.39329 87.972 8.70883C87.4104 9.02437 86.9764 9.46503 86.6615 10.0393C86.3552 10.622 86.2021 11.273 86.2021 12.0092C86.2021 12.7597 86.3552 13.4192 86.6615 13.9934C86.9764 14.5619 87.4104 15.0025 87.972 15.3181C88.5222 15.6279 89.1518 15.79 89.8524 15.79C90.4253 15.79 90.9586 15.6706 91.4464 15.4375C91.9371 15.1987 92.3427 14.8491 92.6632 14.3658Z" fill="black"/>
<path d="M99.5349 15.3598C99.3533 15.5219 99.1349 15.6413 98.8853 15.7237C98.6329 15.8175 98.3748 15.8573 98.1025 15.8573C97.5608 15.8573 97.1495 15.701 96.863 15.4025C96.5765 15.1069 96.429 14.6662 96.429 14.0892V8.31287H99.3675V7.20702H96.429V5.08923H95.1301V14.1602C95.1301 15.0557 95.3739 15.7521 95.8618 16.2411C96.3525 16.7357 97.0502 16.9802 97.955 16.9802C98.3464 16.9802 98.7237 16.9233 99.0867 16.8039C99.4441 16.6845 99.7504 16.5168 99.9972 16.3008L99.5349 15.3598Z" fill="black"/>
<path d="M23.2183 14.0833C23.0623 14.5012 22.8127 14.8224 22.444 15.0413C22.0838 15.2574 21.6696 15.3625 21.2045 15.3625C20.7252 15.3625 20.3508 15.2659 20.0785 15.0584C19.8062 14.8537 19.6644 14.5752 19.6644 14.2227C19.6644 13.4892 20.2231 13.1197 21.3435 13.1197H23.2183V14.0833ZM24.7698 8.53729C23.9898 7.84083 22.8695 7.48828 21.4116 7.48828C20.66 7.48828 19.9197 7.58779 19.1993 7.78678C18.4845 7.98861 17.8634 8.27003 17.3528 8.63105L18.3313 10.5413C18.6717 10.2741 19.0858 10.0609 19.5708 9.89887C20.0529 9.74537 20.5437 9.66582 21.0457 9.66582C21.7718 9.66582 22.3107 9.825 22.6681 10.1462C23.0368 10.4674 23.2183 10.928 23.2183 11.5221H21.0457C19.6729 11.5221 18.6519 11.7779 17.991 12.2754C17.3301 12.7785 17.004 13.475 17.004 14.3506C17.004 14.8964 17.1429 15.391 17.4266 15.8174C17.7045 16.2523 18.1101 16.5934 18.6377 16.8408C19.1709 17.0795 19.7977 17.2075 20.5266 17.2075C21.9249 17.2075 22.878 16.7668 23.3885 15.8913V17.0681H25.944V11.6812C25.944 10.2798 25.5554 9.2309 24.7698 8.53729Z" fill="black"/>
<path d="M40.1023 11.6496H36.6788V5.18814H40.1023C41.3758 5.18814 42.3486 5.46671 43.018 6.02957C43.6902 6.58389 44.0248 7.37982 44.0248 8.42593C44.0248 9.4493 43.6902 10.2368 43.018 10.8053C42.3486 11.3653 41.3758 11.6496 40.1023 11.6496ZM33.4256 14.2449C32.9718 14.7168 32.3988 14.9584 31.7124 14.9584C31.0119 14.9584 30.4361 14.7168 29.9823 14.2449C29.52 13.7759 29.2931 13.1448 29.2931 12.346C29.2931 11.5529 29.52 10.919 29.9823 10.4443C30.4361 9.96954 31.0119 9.73075 31.7124 9.73075C32.3988 9.73075 32.9718 9.96954 33.4256 10.4443C33.8794 10.919 34.1034 11.5529 34.1034 12.346C34.1034 13.1448 33.8794 13.7759 33.4256 14.2449ZM42.4536 12.4796C43.3896 12.1726 44.1156 11.6723 44.6262 10.9787C45.131 10.2822 45.3891 9.43793 45.3891 8.42593C45.3891 7.05291 44.9212 5.97272 43.9908 5.18814C43.0577 4.40356 41.7728 4.01123 40.1363 4.01123L34.0524 4.05391V8.62775C33.3774 7.86591 32.4386 7.48499 31.2388 7.48499C30.351 7.48499 29.5455 7.68685 28.8336 8.08767C28.1132 8.47996 27.5544 9.04565 27.1403 9.78475C26.7319 10.5238 26.5333 11.3738 26.5333 12.346C26.5333 13.3154 26.7319 14.171 27.1403 14.9044C27.5544 15.6407 28.1132 16.2092 28.8336 16.6043C29.5455 17.0052 30.351 17.2042 31.2388 17.2042C32.518 17.2042 33.4993 16.7977 34.1772 15.9761V17.0648H36.7838V12.8065H40.1363C40.4936 12.8065 40.834 12.7894 41.1659 12.7525L44.1014 16.8943H45.5933L42.4536 12.4796Z" fill="black"/>
<path d="M47.2782 11.4464C47.3633 10.4827 47.7178 9.71519 48.356 9.11538C48.9828 8.52126 49.7599 8.22558 50.6902 8.22558C51.6347 8.22558 52.4176 8.52126 53.0557 9.11538C53.6854 9.71519 54.0428 10.4827 54.125 11.4464H47.2782ZM55.3787 12.0121C55.3787 11.0598 55.1745 10.2098 54.7689 9.47072C54.3633 8.72593 53.8102 8.14315 53.0983 7.73096C52.3892 7.3074 51.5893 7.09705 50.6902 7.09705C49.7968 7.09705 48.9941 7.3074 48.2794 7.73096C47.5646 8.14315 46.9974 8.72594 46.5918 9.47641C46.1805 10.2269 45.9763 11.074 45.9763 12.0121C45.9763 12.9587 46.1862 13.8086 46.6202 14.5591C47.0456 15.2982 47.6412 15.8895 48.4042 16.3102C49.1729 16.7395 50.0493 16.9498 51.042 16.9498C51.8106 16.9498 52.5169 16.8162 53.1607 16.5433C53.8046 16.2761 54.3434 15.8838 54.7689 15.3636L54.0371 14.5136C53.6712 14.9372 53.2316 15.2527 52.7324 15.4687C52.2304 15.6819 51.6773 15.7928 51.076 15.7928C50.0152 15.7928 49.1331 15.4773 48.4325 14.8604C47.7405 14.2407 47.3576 13.4305 47.2782 12.4185H55.356L55.3787 12.0121Z" fill="black"/>
<path d="M62.7689 12.7114C63.1064 13.0695 63.2652 13.5585 63.2652 14.1838C63.2652 15.031 62.9163 15.7047 62.2101 16.2022C61.5095 16.694 60.531 16.947 59.2859 16.947C58.5031 16.947 57.7486 16.8332 57.0338 16.603C56.3191 16.3784 55.7603 16.0913 55.3547 15.7473L55.9419 14.7155C56.3475 15.0395 56.8523 15.2982 57.4678 15.5029C58.0747 15.7047 58.7129 15.8042 59.3766 15.8042C60.2587 15.8042 60.9082 15.662 61.328 15.3891C61.7563 15.1162 61.9662 14.724 61.9662 14.218C61.9662 13.8683 61.8471 13.5869 61.6145 13.3851C61.3848 13.1804 61.0897 13.0269 60.7352 12.9217C60.3778 12.8165 59.9098 12.717 59.3199 12.6204C58.5371 12.4725 57.9074 12.3248 57.4253 12.1713C56.9488 12.0178 56.5432 11.7591 56.2085 11.3867C55.8738 11.0228 55.7036 10.5111 55.7036 9.85728C55.7036 9.0528 56.0411 8.38478 56.7133 7.87309C57.3827 7.35572 58.3215 7.09705 59.5241 7.09705C60.1453 7.09705 60.7693 7.17952 61.3989 7.34724C62.0229 7.5178 62.5306 7.73379 62.939 8.001L62.3718 9.05285C61.5748 8.49853 60.6218 8.22558 59.5241 8.22558C58.6931 8.22558 58.0634 8.37058 57.6437 8.66621C57.2154 8.96185 57.0055 9.34564 57.0055 9.82321C57.0055 10.1871 57.1246 10.4827 57.3629 10.7072C57.6011 10.9318 57.9017 11.091 58.2591 11.1962C58.608 11.2957 59.0986 11.4066 59.7283 11.5203C60.4969 11.6681 61.1124 11.8131 61.5804 11.9609C62.0427 12.1087 62.4399 12.3532 62.7689 12.7114Z" fill="black"/>
<path d="M72.5118 13.9849C72.1941 14.5648 71.7687 15.0082 71.2156 15.3209C70.6625 15.6308 70.0555 15.7929 69.3776 15.7929C68.6884 15.7929 68.0729 15.6308 67.5369 15.3209C66.9923 15.0082 66.5584 14.5648 66.2493 13.9849C65.9344 13.4078 65.7812 12.7512 65.7812 12.0121C65.7812 11.2786 65.9344 10.6277 66.2493 10.0563C66.5584 9.4821 66.9923 9.04143 67.5369 8.72021C68.0729 8.40183 68.6884 8.24266 69.3776 8.24266C70.0555 8.24266 70.6625 8.40183 71.2156 8.72021C71.7687 9.04143 72.1941 9.4821 72.5118 10.0563C72.8238 10.6277 72.977 11.2786 72.977 12.0121C72.977 12.7512 72.8238 13.4078 72.5118 13.9849ZM73.6548 9.45364C73.2436 8.70886 72.6621 8.12899 71.9303 7.71396C71.1957 7.30745 70.3761 7.09705 69.4713 7.09705C68.6629 7.09705 67.934 7.27331 67.2902 7.61728C66.6548 7.96125 66.1386 8.45301 65.7444 9.08977V7.17665H64.4935V20.4264H65.8011V15.0367C66.1982 15.6592 66.7201 16.1368 67.3469 16.458C67.985 16.7877 68.6884 16.9498 69.4713 16.9498C70.3902 16.9498 71.2156 16.7451 71.9417 16.3329C72.6706 15.9207 73.2436 15.3437 73.6548 14.5932C74.0774 13.8428 74.2816 12.9871 74.2816 12.0121C74.2816 11.0598 74.0774 10.2041 73.6548 9.45364Z" fill="black"/>
<path d="M76.2537 11.4464C76.3444 10.4827 76.699 9.71519 77.3315 9.11538C77.9583 8.52126 78.744 8.22558 79.6714 8.22558C80.6103 8.22558 81.4015 8.52126 82.0312 9.11538C82.6609 9.71519 83.0182 10.4827 83.1005 11.4464H76.2537ZM84.3542 12.0121C84.3542 11.0598 84.1499 10.2098 83.7444 9.47072C83.3444 8.72593 82.7857 8.14315 82.0738 7.73096C81.3647 7.3074 80.5592 7.09705 79.6714 7.09705C78.778 7.09705 77.9725 7.3074 77.2521 7.73096C76.5373 8.14315 75.9729 8.72594 75.5673 9.47641C75.156 10.2269 74.9518 11.074 74.9518 12.0121C74.9518 12.9587 75.1673 13.8086 75.5956 14.5591C76.0211 15.2982 76.6167 15.8895 77.3854 16.3102C78.1483 16.7395 79.0304 16.9498 80.0146 16.9498C80.7918 16.9498 81.498 16.8162 82.1419 16.5433C82.7857 16.2761 83.3161 15.8838 83.7444 15.3636L83.0098 14.5136C82.6467 14.9372 82.2128 15.2527 81.7079 15.4687C81.203 15.6819 80.6528 15.7928 80.06 15.7928C78.9879 15.7928 78.1058 15.4773 77.4138 14.8604C76.716 14.2407 76.3303 13.4305 76.2537 12.4185H84.3315L84.3542 12.0121Z" fill="black"/>
<path d="M100 16.2979C99.7561 16.5168 99.4469 16.6845 99.0896 16.8039C98.7265 16.9233 98.3493 16.9802 97.9579 16.9802C97.0559 16.9802 96.3553 16.7329 95.8646 16.2439C95.3768 15.7521 95.1301 15.0585 95.1301 14.1602V5.08923H96.4319V7.20702H99.3703V8.31287H96.4319V14.092C96.4319 14.6662 96.5794 15.1069 96.8659 15.4025C97.1523 15.7038 97.5665 15.8573 98.1054 15.8573C98.3776 15.8573 98.6358 15.8147 98.8882 15.7237C99.1406 15.6413 99.3562 15.5219 99.5377 15.3598L100 16.2979Z" fill="black"/>
</svg>
